<?xml version="1.0" encoding="UTF-8" standalone="no"?>
<!-- Created with Inkscape (http://www.inkscape.org/) -->

<svg
   width="26.38649mm"
   height="17.657761mm"
   viewBox="0 0 26.38649 17.657761"
   version="1.1"
   id="svg57806"
   xmlns="http://www.w3.org/2000/svg"
   xmlns:svg="http://www.w3.org/2000/svg">
  <defs
     id="defs57803">
    <rect
       x="516.49292"
       y="228.09708"
       width="50.270832"
       height="26.080357"
       id="rect7815" />
  </defs>
  <g
     id="layer1"
     transform="translate(-41.693494,-131.32349)">
    <path
       id="rect836-7"
       style="display:inline;fill:#ffffff;fill-opacity:1;stroke:none;stroke-width:0.4024;stroke-linecap:round;stroke-linejoin:round;stroke-opacity:1;paint-order:markers stroke fill"
       d="m 47.984714,131.32349 c -1.00482,0 -1.82628,0.82128 -1.82628,1.8261 0,1.00446 0.82075,1.82569 1.82508,1.82628 v 3.07322 2.74037 l -1.7432,-2.66591 c -2.58611,0.42647 -4.54682,2.66121 -4.54682,5.3718 0,3.01723 2.42903,5.44608 5.44626,5.44608 h 8.82526 c 3.01723,0 5.44625,-2.42885 5.44625,-5.44608 0,-3.01723 -2.42902,-5.44626 -5.44625,-5.44626 h -6.50893 v -3.82114 c 0.22272,-0.30268 0.35474,-0.67572 0.35474,-1.07836 0,-1.00482 -0.82129,-1.8261 -1.82611,-1.8261 z m 0,0.63105 c 0.66378,0 1.19506,0.53127 1.19506,1.19505 0,0.66379 -0.53128,1.19523 -1.19506,1.19523 -0.66379,0 -1.19505,-0.53144 -1.19505,-1.19523 0,-0.66378 0.53126,-1.19505 1.19505,-1.19505 z m 20.09527,6.05473 a 5.4860051,5.4860051 0 0 0 -4.75107,2.74295 5.4860051,5.4860051 0 0 0 0,5.48608 5.4860051,5.4860051 0 0 0 4.75107,2.74295 z m -20.01132,5.9963 a 1.5106392,1.5106392 0 0 1 0.001,0 1.5106392,1.5106392 0 0 1 0.008,0 1.5106392,1.5106392 0 0 1 1.51066,1.51066 1.5106392,1.5106392 0 0 1 -1.51066,1.51067 1.5106392,1.5106392 0 0 1 -1.51067,-1.51067 1.5106392,1.5106392 0 0 1 1.50205,-1.51066 z m 4.53183,0 a 1.5106392,1.5106392 0 0 1 0.001,0 1.5106392,1.5106392 0 0 1 0.008,0 1.5106392,1.5106392 0 0 1 1.51066,1.51066 1.5106392,1.5106392 0 0 1 -1.51066,1.51067 1.5106392,1.5106392 0 0 1 -1.5105,-1.51067 1.5106392,1.5106392 0 0 1 1.50188,-1.51066 z m 4.53182,0 a 1.5106392,1.5106392 0 0 1 10e-4,0 1.5106392,1.5106392 0 0 1 0.008,0 1.5106392,1.5106392 0 0 1 1.51067,1.51066 1.5106392,1.5106392 0 0 1 -1.51067,1.51067 1.5106392,1.5106392 0 0 1 -1.51066,-1.51067 1.5106392,1.5106392 0 0 1 1.50187,-1.51066 z" />
  </g>
</svg>
